<svg width="24" height="24" viewBox="0 0 24 24" fill="none" xmlns="http://www.w3.org/2000/svg">
<path d="M12 2C6.47715 2 2 6.47715 2 12C2 17.5228 6.47715 22 12 22C17.5228 22 22 17.5228 22 12C22 6.47715 17.5228 2 12 2Z" fill="#424242"/>
<path d="M12 14C14.2091 14 16 12.2091 16 10C16 7.79086 14.2091 6 12 6C9.79086 6 8 7.79086 8 10C8 12.2091 9.79086 14 12 14Z" fill="white"/>
<path d="M12 14C10.8954 14 10 13.1046 10 12C10 10.8954 10.8954 10 12 10C13.1046 10 14 10.8954 14 12C14 13.1046 13.1046 14 12 14Z" fill="#424242"/>
<path d="M12 18C14.2091 18 16 16.2091 16 14C16 11.7909 14.2091 10 12 10C9.79086 10 8 11.7909 8 14C8 16.2091 9.79086 18 12 18Z" fill="white"/>
</svg>