<svg width="24" height="24" viewBox="0 0 24 24" fill="none" xmlns="http://www.w3.org/2000/svg">
<path d="M12 12.75C12.4142 12.75 12.75 12.4142 12.75 12V7.5C12.75 7.08579 12.4142 6.75 12 6.75C11.5858 6.75 11.25 7.08579 11.25 7.5V12C11.25 12.4142 11.5858 12.75 12 12.75Z" fill="#E01E5A"/>
<path d="M12 12.75H16.5C16.9142 12.75 17.25 12.4142 17.25 12C17.25 11.5858 16.9142 11.25 16.5 11.25H12C11.5858 11.25 11.25 11.5858 11.25 12C11.25 12.4142 11.5858 12.75 12 12.75Z" fill="#E01E5A"/>
<path d="M11.25 12C11.25 11.5858 11.5858 11.25 12 11.25H16.5C16.9142 11.25 17.25 11.5858 17.25 12C17.25 12.4142 16.9142 12.75 16.5 12.75H12C11.5858 12.75 11.25 12.4142 11.25 12Z" fill="#36C5F0"/>
<path d="M12 11.25C11.5858 11.25 11.25 11.5858 11.25 12V16.5C11.25 16.9142 11.5858 17.25 12 17.25C12.4142 17.25 12.75 16.9142 12.75 16.5V12C12.75 11.5858 12.4142 11.25 12 11.25Z" fill="#36C5F0"/>
<path d="M12.75 12C12.75 12.4142 12.4142 12.75 12 12.75H7.5C7.08579 12.75 6.75 12.4142 6.75 12C6.75 11.5858 7.08579 11.25 7.5 11.25H12C12.4142 11.25 12.75 11.5858 12.75 12Z" fill="#2EB67D"/>
<path d="M12.75 12C12.75 11.5858 12.4142 11.25 12 11.25V7.5C12 7.08579 11.5858 6.75 11.25 6.75C10.8358 6.75 10.5 7.08579 10.5 7.5V11.25C10.5 11.5858 10.8358 11.25 11.25 11.25H12.75Z" fill="#2EB67D"/>
<path d="M12 11.25C11.5858 11.25 11.25 11.5858 11.25 12V16.5C11.25 16.9142 11.5858 17.25 12 17.25C12.4142 17.25 12.75 16.9142 12.75 16.5V12C12.75 11.5858 12.4142 11.25 12 11.25Z" fill="#ECB22E"/>
<path d="M12 12.75H7.5C7.08579 12.75 6.75 12.4142 6.75 12C6.75 11.5858 7.08579 11.25 7.5 11.25H12C12.4142 11.25 12.75 11.5858 12.75 12Z" fill="#ECB22E"/>
</svg>