<svg width="24" height="24" viewBox="0 0 24 24" fill="none" xmlns="http://www.w3.org/2000/svg">
<path d="M12 0C5.373 0 0 5.373 0 12C0 18.627 5.373 24 12 24C18.627 24 24 18.627 24 12C24 5.373 18.627 0 12 0ZM12 2.25C16.812 2.25 20.75 6.188 20.75 11C20.75 15.812 16.812 19.75 12 19.75C7.188 19.75 3.25 15.812 3.25 11C3.25 6.188 7.188 2.25 12 2.25Z" fill="#00BCEB"/>
<path d="M12 11C12 10.5858 11.5858 10.25 11.1716 10.25H7.5C7.08579 10.25 6.75 10.5858 6.75 11C6.75 11.4142 7.08579 11.75 7.5 11.75H11.1716C11.5858 11.75 12 11.4142 12 11Z" fill="#00BCEB"/>
<path d="M12 11C12 11.4142 12.4142 11.75 12.8284 11.75H16.5C16.9142 11.75 17.25 11.4142 17.25 11C17.25 10.5858 16.9142 10.25 16.5 10.25H12.8284C12.4142 10.25 12 10.5858 12 11Z" fill="#00BCEB"/>
<path d="M11 12C10.5858 12 10.25 11.5858 10.25 11.1716V7.5C10.25 7.08579 10.5858 6.75 11 6.75C11.4142 6.75 11.75 7.08579 11.75 7.5V11.1716C11.75 11.5858 11.4142 12 11 12Z" fill="#00BCEB"/>
<path d="M11 12C11.4142 12 11.75 12.4142 11.75 12.8284V16.5C11.75 16.9142 11.4142 17.25 11 17.25C10.5858 17.25 10.25 16.9142 10.25 16.5V12.8284C10.25 12.4142 10.5858 12 11 12Z" fill="#00BCEB"/>
</svg>